<?xml version="1.0" standalone="no"?>
<!DOCTYPE svg PUBLIC "-//W3C//DTD SVG 20010904//EN"
 "http://www.w3.org/TR/2001/REC-SVG-20010904/DTD/svg10.dtd">
<svg version="1.0" xmlns="http://www.w3.org/2000/svg"
 width="512.000000pt" height="512.000000pt" viewBox="0 0 512.000000 512.000000"
 preserveAspectRatio="xMidYMid meet">
<metadata>
Created by potrace 1.14, written by Peter Selinger 2001-2017
</metadata>
<g transform="translate(0.000000,512.000000) scale(0.100000,-0.100000)"
fill="#000000" stroke="none">
<path d="M770 4465 c-100 -27 -203 -105 -244 -185 -46 -90 -46 -74 -43 -1175
l2 -1039 155 -78 155 -77 5 389 5 390 261 262 c143 145 269 277 280 293 15 24
19 48 19 115 0 79 -2 88 -32 130 -17 25 -144 157 -282 295 -248 247 -251 250
-251 292 0 24 6 48 16 57 21 21 61 31 84 20 16 -7 312 -293 738 -713 l82 -81
852 0 851 0 398 401 c389 393 399 401 431 395 48 -10 68 -33 68 -80 0 -40 -5
-46 -265 -306 -289 -290 -308 -315 -306 -416 0 -33 8 -69 22 -96 13 -27 119
-141 285 -308 l264 -265 2 -387 3 -386 157 77 157 76 1 1041 c0 1147 2 1095
-62 1197 -114 179 -373 229 -553 106 -22 -15 -197 -185 -389 -378 l-348 -351
-719 0 -719 0 -205 203 c-546 537 -553 542 -637 573 -55 20 -180 25 -238 9z
m440 -1105 c0 -32 -16 -51 -205 -240 l-205 -205 0 445 0 445 205 -205 c189
-189 205 -208 205 -240z m3110 -2 l0 -443 -205 205 c-189 188 -205 208 -205
240 0 32 16 51 202 237 112 112 204 203 205 203 2 0 3 -199 3 -442z"/>
<path d="M1465 2694 c-23 -21 -27 -31 -22 -61 8 -49 67 -135 144 -211 l63 -62
-22 -31 c-21 -28 -23 -41 -23 -169 0 -151 5 -167 68 -214 39 -29 135 -29 173
0 60 45 69 66 72 188 l4 112 53 -4 c49 -4 57 -1 80 24 22 23 26 35 21 63 -3
19 -11 40 -18 48 -8 7 -53 20 -103 28 -52 9 -109 27 -139 43 -70 38 -159 123
-203 194 -51 82 -98 99 -148 52z"/>
<path d="M3563 2714 c-7 -3 -22 -22 -35 -42 -33 -55 -38 -60 -108 -132 -80
-82 -169 -128 -262 -136 -72 -7 -105 -24 -114 -59 -16 -65 32 -110 111 -103
l43 3 4 -112 c3 -121 12 -142 71 -187 39 -29 135 -29 173 0 64 47 69 63 69
214 0 128 -2 141 -22 169 l-23 30 73 74 c95 97 142 174 133 221 -4 19 -13 39
-20 45 -16 14 -75 23 -93 15z"/>
<path d="M346 1895 c-28 -26 -32 -48 -16 -89 8 -21 72 -57 350 -196 187 -93
351 -170 363 -170 13 0 36 11 51 25 22 21 27 32 23 59 -2 19 -8 39 -12 45 -11
19 -683 351 -708 351 -13 0 -36 -11 -51 -25z"/>
<path d="M2343 1901 c-13 -11 -24 -34 -27 -55 -4 -33 1 -41 98 -139 104 -106
130 -122 172 -107 37 15 213 196 218 225 7 35 -11 70 -41 84 -15 7 -94 11
-211 11 -167 -1 -189 -3 -209 -19z"/>
<path d="M4365 1754 c-181 -91 -338 -176 -347 -187 -37 -46 -12 -108 48 -123
23 -6 88 23 366 162 208 104 345 178 353 191 16 24 19 51 9 78 -8 19 -55 45
-81 44 -10 0 -166 -74 -348 -165z"/>
<path d="M3546 1575 c-25 -27 -30 -45 -27 -91 3 -39 -29 -158 -60 -221 -82
-166 -297 -297 -497 -302 -48 -1 -86 -44 -78 -90 3 -19 12 -41 19 -49 37 -36
197 -17 334 39 263 110 443 368 439 631 -1 77 -13 96 -69 105 -30 5 -40 1 -61
-22z"/>
<path d="M480 1360 l0 -170 27 13 c120 53 288 145 288 157 0 12 -163 101 -288
157 l-27 13 0 -170z"/>
<path d="M4480 1451 c-89 -44 -155 -84 -155 -92 0 -8 66 -46 155 -91 l155 -76
3 84 c1 46 1 122 0 169 l-3 84 -155 -78z"/>
<path d="M685 1114 c-181 -91 -338 -176 -347 -187 -37 -46 -12 -108 49 -123
22 -6 87 23 370 165 219 109 346 179 354 192 13 25 4 82 -15 98 -8 7 -29 14
-48 16 -27 4 -88 -23 -363 -161z"/>
<path d="M4025 1254 c-27 -29 -30 -49 -15 -88 8 -21 72 -57 350 -196 187 -93
351 -170 363 -170 13 0 36 11 51 25 22 21 27 32 23 59 -2 19 -8 39 -12 46 -12
19 -684 350 -711 350 -14 0 -36 -11 -49 -26z"/>
<path d="M675 749 c-76 -38 -140 -71 -142 -72 -4 -4 65 -137 89 -170 111 -158
255 -262 438 -319 l75 -23 1425 0 c1602 0 1458 -7 1627 77 103 50 199 131 274
228 60 78 124 194 115 209 -6 9 -276 144 -280 139 -2 -1 -18 -33 -36 -70 -59
-119 -173 -215 -299 -252 -48 -14 -201 -16 -1401 -16 -1282 0 -1349 1 -1413
19 -124 34 -235 128 -294 249 -19 39 -36 72 -36 72 -1 -1 -65 -32 -142 -71z"/>
</g>
</svg>
